<?xml version="1.0" standalone="no"?><!DOCTYPE svg PUBLIC "-//W3C//DTD SVG 1.1//EN" "http://www.w3.org/Graphics/SVG/1.1/DTD/svg11.dtd"><svg t="1732602068938" class="icon" viewBox="0 0 1024 1024" version="1.1" xmlns="http://www.w3.org/2000/svg" p-id="6983" xmlns:xlink="http://www.w3.org/1999/xlink" width="200" height="200"><path d="M799.813632 944.125952a48139.89888 48139.89888 0 0 0-565.69856 2.566144c-188.555264 1.95584-235.587584-80.023552-141.088768-245.966848A50198.038528 50198.038528 0 0 0 373.69856 201.275392c92.60032-167.036928 185.942016-167.456768 280.008704-1.267712a50161.348608 50161.348608 0 0 0 285.036544 496.88576c95.944704 165.072896 49.639424 247.492608-138.930176 247.232512z" fill="#F3C9C7" p-id="6984"></path><path d="M227.551232 967.206912c-98.932736 0-160.290816-22.837248-187.604992-69.824512-28.035072-48.226304-16.492544-115.867648 35.284992-206.790656A50453.66784 50453.66784 0 0 0 355.7888 191.342592c50.786304-91.609088 102.377472-136.142848 157.720576-136.142848 55.021568 0 106.71104 44.066816 158.02368 134.71744a50352.621568 50352.621568 0 0 0 284.91776 496.68096c52.709376 90.687488 64.765952 158.345216 36.857856 206.845952-27.553792 47.884288-90.556416 71.159808-192.606208 71.159808h-0.915456a48429.453312 48429.453312 0 0 0-565.458944 2.564096c-2.258944 0.024576-4.52608 0.036864-6.744064 0.036864l-0.032768 0.002048zM513.507328 96.161792c-38.023168 0-80.173056 39.780352-121.89696 115.044352A50471.235584 50471.235584 0 0 1 110.821376 710.862848c-43.319296 76.070912-55.252992 131.897344-35.467264 165.933056 19.075072 32.811008 70.289408 49.44896 152.193024 49.451008h0.03072c2.07872 0 4.206592-0.01024 6.322176-0.032768a48339.21024 48339.21024 0 0 1 565.938176-2.568192h0.86016c84.916224 0 137.771008-17.033216 157.104128-50.630656 19.679232-34.199552 7.309312-89.993216-36.767744-165.832704A50387.955712 50387.955712 0 0 1 635.88352 210.09408c-42.790912-75.599872-83.965952-113.932288-122.376192-113.932288z" fill="#D9433F" p-id="6985"></path><path d="M510.464 701.540352c-36.732928 0-66.506752 29.775872-66.506752 66.510848S473.731072 834.56 510.464 834.56s66.5088-29.773824 66.5088-66.5088-29.773824-66.510848-66.5088-66.510848z m35.815424-28.499968l23.844864-389.545984h-116.66432l23.844864 389.545984h68.974592z" fill="#D9433F" p-id="6986"></path></svg>